<svg xmlns="http://www.w3.org/2000/svg" xmlns:xlink="http://www.w3.org/1999/xlink" width="28.952" height="30.097" viewBox="0 0 28.952 30.097">
  <defs>
    <linearGradient id="linear-gradient" x1="0.972" y1="0.063" x2="0.062" y2="0.939" gradientUnits="objectBoundingBox">
      <stop offset="0" stop-color="#2d42d0"/>
      <stop offset="1" stop-color="#092a99"/>
    </linearGradient>
  </defs>
  <g id="Group_41765" data-name="Group 41765" transform="translate(0)">
    <path id="Path_11749" data-name="Path 11749" d="M328.436,136.812a7.457,7.457,0,0,0-6.379,3.669,20.214,20.214,0,0,0-2.352,5.73,25.079,25.079,0,0,0-.716,6,23.032,23.032,0,0,0,1.67,8.852c1.2,2.813,2.981,4.9,5.187,5.6,2.545.814,6.479-.577,10.327-2.869,5.989-3.567,11.767-9.317,11.767-12.339a2.036,2.036,0,0,0-.029-.35.139.139,0,0,0,0-.016,10.217,10.217,0,0,0-1.583-3.657C342.874,142.135,334.741,136.556,328.436,136.812Z" transform="translate(-318.989 -136.804)" fill="url(#linear-gradient)"/>
    <path id="Path_11748" data-name="Path 11748" d="M12.429,5.934A12.092,12.092,0,0,0,9.4,5a7.7,7.7,0,0,0-.385.785,11.584,11.584,0,0,0-3.357,0C5.553,5.541,5.4,5.23,5.271,5a11.921,11.921,0,0,0-3.031.934,12.2,12.2,0,0,0-2.178,8.32,12.35,12.35,0,0,0,3.713,1.86,9.033,9.033,0,0,0,.793-1.282,7.775,7.775,0,0,1-1.252-.6c.1-.074.207-.156.3-.237a8.72,8.72,0,0,0,7.417,0c.1.082.2.163.3.237a7.775,7.775,0,0,1-1.252.6,9.037,9.037,0,0,0,.793,1.282,12.282,12.282,0,0,0,3.713-1.86A12.127,12.127,0,0,0,12.429,5.934ZM4.9,12.572a1.4,1.4,0,0,1-1.319-1.467A1.392,1.392,0,0,1,4.9,9.638,1.387,1.387,0,0,1,6.22,11.105,1.4,1.4,0,0,1,4.9,12.572Zm4.868,0a1.4,1.4,0,0,1-1.32-1.467A1.393,1.393,0,0,1,9.77,9.638a1.387,1.387,0,0,1,1.319,1.467A1.392,1.392,0,0,1,9.77,12.572Z" transform="translate(5.265 4.492)" fill="#fff"/>
  </g>
</svg>
