<svg width="375" height="56" viewBox="0 0 375 56" fill="none" xmlns="http://www.w3.org/2000/svg">
<g clip-path="url(#clip0_878_180)">
<path d="M101.494 43V11H105.369V25.25H122.432V11H126.307V43H122.432V28.6875H105.369V43H101.494ZM140.627 43.5625C139.106 43.5625 137.726 43.276 136.486 42.7031C135.247 42.1198 134.262 41.2812 133.533 40.1875C132.804 39.0833 132.439 37.75 132.439 36.1875C132.439 34.8125 132.71 33.6979 133.252 32.8437C133.794 31.9792 134.518 31.3021 135.424 30.8125C136.33 30.3229 137.33 29.9583 138.424 29.7187C139.528 29.4688 140.637 29.2708 141.752 29.125C143.21 28.9375 144.393 28.7969 145.299 28.7031C146.215 28.599 146.882 28.4271 147.299 28.1875C147.726 27.9479 147.939 27.5312 147.939 26.9375V26.8125C147.939 25.2708 147.518 24.0729 146.674 23.2187C145.84 22.3646 144.575 21.9375 142.877 21.9375C141.117 21.9375 139.736 22.3229 138.736 23.0937C137.736 23.8646 137.033 24.6875 136.627 25.5625L133.127 24.3125C133.752 22.8542 134.585 21.7187 135.627 20.9062C136.679 20.0833 137.825 19.5104 139.064 19.1875C140.314 18.8542 141.544 18.6875 142.752 18.6875C143.523 18.6875 144.408 18.7812 145.408 18.9687C146.419 19.1458 147.393 19.5156 148.33 20.0781C149.278 20.6406 150.064 21.4896 150.689 22.625C151.314 23.7604 151.627 25.2812 151.627 27.1875V43H147.939V39.75H147.752C147.502 40.2708 147.085 40.8281 146.502 41.4219C145.919 42.0156 145.143 42.5208 144.174 42.9375C143.205 43.3542 142.023 43.5625 140.627 43.5625ZM141.189 40.25C142.648 40.25 143.877 39.9635 144.877 39.3906C145.887 38.8177 146.648 38.0781 147.158 37.1719C147.679 36.2656 147.939 35.3125 147.939 34.3125V30.9375C147.783 31.125 147.439 31.2969 146.908 31.4531C146.387 31.599 145.783 31.7292 145.096 31.8437C144.419 31.9479 143.757 32.0417 143.111 32.125C142.476 32.1979 141.96 32.2604 141.564 32.3125C140.606 32.4375 139.71 32.6406 138.877 32.9219C138.054 33.1927 137.387 33.6042 136.877 34.1562C136.377 34.6979 136.127 35.4375 136.127 36.375C136.127 37.6562 136.601 38.625 137.549 39.2812C138.507 39.9271 139.721 40.25 141.189 40.25ZM175.357 24.375L172.045 25.3125C171.837 24.7604 171.529 24.224 171.123 23.7031C170.727 23.1719 170.186 22.7344 169.498 22.3906C168.811 22.0469 167.93 21.875 166.857 21.875C165.389 21.875 164.165 22.2135 163.186 22.8906C162.217 23.5573 161.732 24.4062 161.732 25.4375C161.732 26.3542 162.066 27.0781 162.732 27.6094C163.399 28.1406 164.441 28.5833 165.857 28.9375L169.42 29.8125C171.566 30.3333 173.165 31.1302 174.217 32.2031C175.269 33.2656 175.795 34.6354 175.795 36.3125C175.795 37.6875 175.399 38.9167 174.607 40C173.826 41.0833 172.732 41.9375 171.326 42.5625C169.92 43.1875 168.285 43.5 166.42 43.5C163.972 43.5 161.946 42.9688 160.342 41.9062C158.738 40.8437 157.722 39.2917 157.295 37.25L160.795 36.375C161.128 37.6667 161.758 38.6354 162.686 39.2812C163.623 39.9271 164.847 40.25 166.357 40.25C168.076 40.25 169.441 39.8854 170.451 39.1562C171.472 38.4167 171.982 37.5312 171.982 36.5C171.982 35.6667 171.691 34.9687 171.107 34.4062C170.524 33.8333 169.628 33.4062 168.42 33.125L164.42 32.1875C162.222 31.6667 160.607 30.8594 159.576 29.7656C158.555 28.6615 158.045 27.2812 158.045 25.625C158.045 24.2708 158.425 23.0729 159.186 22.0312C159.956 20.9896 161.003 20.1719 162.326 19.5781C163.66 18.9844 165.17 18.6875 166.857 18.6875C169.232 18.6875 171.097 19.2083 172.451 20.25C173.816 21.2917 174.785 22.6667 175.357 24.375ZM185.033 28.5625V43H181.346V11H185.033V22.75H185.346C185.908 21.5104 186.752 20.526 187.877 19.7969C189.012 19.0573 190.523 18.6875 192.408 18.6875C194.044 18.6875 195.476 19.0156 196.705 19.6719C197.934 20.3177 198.887 21.3125 199.564 22.6562C200.252 23.9896 200.596 25.6875 200.596 27.75V43H196.908V28C196.908 26.0937 196.413 24.6198 195.424 23.5781C194.445 22.526 193.085 22 191.346 22C190.137 22 189.054 22.2552 188.096 22.7656C187.148 23.276 186.398 24.0208 185.846 25C185.304 25.9792 185.033 27.1667 185.033 28.5625ZM207.342 43V19H211.029V43H207.342ZM209.217 15C208.498 15 207.878 14.7552 207.357 14.2656C206.847 13.776 206.592 13.1875 206.592 12.5C206.592 11.8125 206.847 11.224 207.357 10.7344C207.878 10.2448 208.498 10 209.217 10C209.936 10 210.55 10.2448 211.061 10.7344C211.581 11.224 211.842 11.8125 211.842 12.5C211.842 13.1875 211.581 13.776 211.061 14.2656C210.55 14.7552 209.936 15 209.217 15ZM221.471 28.5625V43H217.783V19H221.346V22.75H221.658C222.221 21.5313 223.075 20.5521 224.221 19.8125C225.367 19.0625 226.846 18.6875 228.658 18.6875C230.283 18.6875 231.705 19.0208 232.924 19.6875C234.143 20.3438 235.09 21.3438 235.768 22.6875C236.445 24.0208 236.783 25.7083 236.783 27.75V43H233.096V28C233.096 26.1146 232.606 24.6458 231.627 23.5937C230.648 22.5312 229.304 22 227.596 22C226.419 22 225.367 22.2552 224.439 22.7656C223.523 23.276 222.799 24.0208 222.268 25C221.736 25.9792 221.471 27.1667 221.471 28.5625ZM253.209 52.5C251.428 52.5 249.896 52.2708 248.615 51.8125C247.334 51.3646 246.266 50.7708 245.412 50.0313C244.568 49.3021 243.896 48.5208 243.396 47.6875L246.334 45.625C246.667 46.0625 247.089 46.5625 247.6 47.125C248.11 47.6979 248.808 48.1927 249.693 48.6094C250.589 49.0365 251.761 49.25 253.209 49.25C255.146 49.25 256.745 48.7813 258.006 47.8438C259.266 46.9063 259.896 45.4375 259.896 43.4375V38.5625H259.584C259.313 39 258.928 39.5417 258.428 40.1875C257.938 40.8229 257.23 41.3906 256.303 41.8906C255.386 42.3802 254.146 42.625 252.584 42.625C250.646 42.625 248.907 42.1667 247.365 41.25C245.834 40.3333 244.62 39 243.725 37.25C242.839 35.5 242.396 33.375 242.396 30.875C242.396 28.4167 242.829 26.276 243.693 24.4531C244.558 22.6198 245.761 21.2031 247.303 20.2031C248.844 19.1927 250.626 18.6875 252.646 18.6875C254.209 18.6875 255.449 18.9479 256.365 19.4688C257.292 19.9792 258.001 20.5625 258.49 21.2187C258.99 21.8646 259.376 22.3958 259.646 22.8125H260.021V19H263.584V43.6875C263.584 45.75 263.115 47.4271 262.178 48.7188C261.251 50.0208 260.001 50.974 258.428 51.5781C256.865 52.1927 255.126 52.5 253.209 52.5ZM253.084 39.3125C254.563 39.3125 255.813 38.974 256.834 38.2969C257.855 37.6198 258.631 36.6458 259.162 35.375C259.693 34.1042 259.959 32.5833 259.959 30.8125C259.959 29.0833 259.699 27.5573 259.178 26.2344C258.657 24.9115 257.886 23.875 256.865 23.125C255.844 22.375 254.584 22 253.084 22C251.521 22 250.219 22.3958 249.178 23.1875C248.146 23.9792 247.37 25.0417 246.85 26.375C246.339 27.7083 246.084 29.1875 246.084 30.8125C246.084 32.4792 246.344 33.9531 246.865 35.2344C247.396 36.5052 248.178 37.5052 249.209 38.2344C250.251 38.9531 251.542 39.3125 253.084 39.3125ZM270.834 43V11H282.021C284.251 11 286.089 11.3854 287.537 12.1563C288.985 12.9167 290.063 13.9427 290.771 15.2344C291.48 16.5156 291.834 17.9375 291.834 19.5C291.834 20.875 291.589 22.0104 291.1 22.9062C290.62 23.8021 289.985 24.5104 289.193 25.0312C288.412 25.5521 287.563 25.9375 286.646 26.1875V26.5C287.626 26.5625 288.61 26.9062 289.6 27.5312C290.589 28.1562 291.417 29.0521 292.084 30.2187C292.751 31.3854 293.084 32.8125 293.084 34.5C293.084 36.1042 292.719 37.5469 291.99 38.8281C291.261 40.1094 290.11 41.125 288.537 41.875C286.964 42.625 284.917 43 282.396 43H270.834ZM274.709 39.5625H282.396C284.928 39.5625 286.725 39.0729 287.787 38.0937C288.86 37.1042 289.396 35.9062 289.396 34.5C289.396 33.4167 289.12 32.4167 288.568 31.5C288.016 30.5729 287.23 29.8333 286.209 29.2812C285.188 28.7187 283.98 28.4375 282.584 28.4375H274.709V39.5625ZM274.709 25.0625H281.896C283.063 25.0625 284.115 24.8333 285.053 24.375C286.001 23.9167 286.751 23.2708 287.303 22.4375C287.865 21.6042 288.146 20.625 288.146 19.5C288.146 18.0937 287.657 16.901 286.678 15.9219C285.699 14.9323 284.146 14.4375 282.021 14.4375H274.709V25.0625ZM298.951 43V19H302.639V43H298.951ZM300.826 15C300.107 15 299.488 14.7552 298.967 14.2656C298.456 13.776 298.201 13.1875 298.201 12.5C298.201 11.8125 298.456 11.224 298.967 10.7344C299.488 10.2448 300.107 10 300.826 10C301.545 10 302.16 10.2448 302.67 10.7344C303.191 11.224 303.451 11.8125 303.451 12.5C303.451 13.1875 303.191 13.776 302.67 14.2656C302.16 14.7552 301.545 15 300.826 15ZM319.83 19V22.125H307.393V19H319.83ZM311.018 13.25H314.705V36.125C314.705 37.1667 314.856 37.9479 315.158 38.4687C315.471 38.9792 315.867 39.3229 316.346 39.5C316.835 39.6667 317.351 39.75 317.893 39.75C318.299 39.75 318.632 39.7292 318.893 39.6875C319.153 39.6354 319.361 39.5937 319.518 39.5625L320.268 42.875C320.018 42.9687 319.669 43.0625 319.221 43.1563C318.773 43.2604 318.205 43.3125 317.518 43.3125C316.476 43.3125 315.455 43.0885 314.455 42.6406C313.465 42.1927 312.643 41.5104 311.986 40.5938C311.34 39.6771 311.018 38.5208 311.018 37.125V13.25ZM341.947 24.375L338.635 25.3125C338.426 24.7604 338.119 24.224 337.713 23.7031C337.317 23.1719 336.775 22.7344 336.088 22.3906C335.4 22.0469 334.52 21.875 333.447 21.875C331.979 21.875 330.755 22.2135 329.775 22.8906C328.807 23.5573 328.322 24.4062 328.322 25.4375C328.322 26.3542 328.656 27.0781 329.322 27.6094C329.989 28.1406 331.031 28.5833 332.447 28.9375L336.01 29.8125C338.156 30.3333 339.755 31.1302 340.807 32.2031C341.859 33.2656 342.385 34.6354 342.385 36.3125C342.385 37.6875 341.989 38.9167 341.197 40C340.416 41.0833 339.322 41.9375 337.916 42.5625C336.51 43.1875 334.874 43.5 333.01 43.5C330.562 43.5 328.536 42.9688 326.932 41.9062C325.327 40.8437 324.312 39.2917 323.885 37.25L327.385 36.375C327.718 37.6667 328.348 38.6354 329.275 39.2812C330.213 39.9271 331.437 40.25 332.947 40.25C334.666 40.25 336.031 39.8854 337.041 39.1562C338.062 38.4167 338.572 37.5312 338.572 36.5C338.572 35.6667 338.281 34.9687 337.697 34.4062C337.114 33.8333 336.218 33.4062 335.01 33.125L331.01 32.1875C328.812 31.6667 327.197 30.8594 326.166 29.7656C325.145 28.6615 324.635 27.2812 324.635 25.625C324.635 24.2708 325.015 23.0729 325.775 22.0312C326.546 20.9896 327.593 20.1719 328.916 19.5781C330.249 18.9844 331.76 18.6875 333.447 18.6875C335.822 18.6875 337.687 19.2083 339.041 20.25C340.406 21.2917 341.374 22.6667 341.947 24.375Z" fill="white"/>
<path d="M28.5308 3.51033L28.0869 5.42843C20.5124 7.61048 15.3409 11.1041 12.5723 15.9093C14.1602 15.3015 15.9218 15.0876 17.6497 15.2928C18.7916 15.475 19.8692 15.8731 20.8009 16.4569C21.7325 17.0408 22.4938 17.795 23.027 18.6626C24.2898 20.5704 24.6739 22.8016 24.1061 24.9317C23.8606 26.1386 23.318 27.2891 22.513 28.3098C21.708 29.3305 20.6582 30.1988 19.4309 30.8593C18.1974 31.5456 16.8121 32.0165 15.3575 32.244C13.903 32.4715 12.4088 32.4509 10.9638 32.1835C9.43704 31.9436 8.00018 31.4017 6.77211 30.6028C5.54404 29.8039 4.56005 28.7709 3.90152 27.5892C2.30607 24.8755 1.87463 21.7825 2.68009 18.8325C3.22984 16.5106 4.32608 14.3042 5.90451 12.3429C7.48294 10.3816 9.51178 8.7048 11.872 7.41094C16.6853 4.46483 22.6057 3.08222 28.5385 3.51873L28.5308 3.51033Z" fill="white"/>
<path d="M52.9625 52.1711L53.4464 50.2601C61.0644 48.1904 66.3075 44.7741 69.1758 40.0111C67.5757 40.5953 65.81 40.7832 64.087 40.5525C62.9492 40.3535 61.8802 39.9396 60.961 39.3422C60.0418 38.7448 59.2965 37.9795 58.7816 37.1043C57.5591 35.1784 57.2218 32.9422 57.8339 30.821C58.1046 29.6181 58.6711 28.4759 59.4972 27.4674C60.3234 26.4589 61.391 25.6063 62.6318 24.9641C63.8793 24.2962 65.274 23.8459 66.733 23.6399C68.1919 23.4339 69.6852 23.4765 71.1242 23.7652C72.6455 24.0276 74.0707 24.5905 75.2817 25.4073C76.4927 26.2241 77.4548 27.2714 78.0884 28.4625C79.6267 31.1989 79.9933 34.2974 79.1264 37.2347C78.5282 39.5479 77.3862 41.7374 75.7671 43.6749C74.1481 45.6124 72.0848 47.2587 69.6982 48.5174C64.8246 51.3917 58.877 52.6865 52.9549 52.1626L52.9625 52.1711Z" fill="white"/>
<path fill-rule="evenodd" clip-rule="evenodd" d="M27.7866 45.0497C27.9549 43.8556 28.2149 42.6718 28.565 41.5059C30.0719 37.0682 32.26 32.8142 35.0743 28.8511C38.6469 23.7195 43.0349 19.0206 48.1174 14.8839C50.2968 13.0368 52.7621 11.4443 55.4468 10.1492C55.5598 10.0085 55.8391 9.96286 56.0934 9.79908L54.8219 11.8404C53.3244 14.0128 52.0018 16.2671 50.8628 18.5879C50.7771 18.8464 50.6369 18.8693 50.3576 18.9149C49.2364 19.3884 48.051 19.7458 46.8273 19.9793C47.3902 20.321 48.0393 20.5489 48.7242 20.6455C49.032 20.7175 49.5917 20.6261 49.8135 20.9556C49.868 21.1912 49.5303 21.6131 49.4441 21.8696C49.3813 22.1633 49.2289 22.4383 49.0019 22.6679C48.7749 22.8974 48.481 23.0736 48.1487 23.1793C47.0751 23.6452 45.9357 23.9952 44.7576 24.221C44.8121 24.4565 44.9523 24.4336 45.1196 24.5276C45.9413 24.8772 46.8293 25.1038 47.7437 25.1973C48.0515 25.2693 48.0787 25.3871 47.9928 25.6446C47.9208 25.925 47.7599 26.1838 47.527 26.3936C47.2942 26.6035 46.9981 26.7565 46.6702 26.8365C45.0087 27.6077 43.2506 28.2221 41.4281 28.6683L41.2878 28.6912C41.7445 28.9389 42.2305 29.1459 42.7382 29.3091C43.6714 29.5145 44.6258 29.6449 45.5885 29.6984C45.7287 29.6755 45.8962 29.7704 45.7832 29.9111C45.3397 30.8659 44.7104 31.7522 43.921 32.5338C43.6308 32.8329 43.2683 33.0767 42.8574 33.2492C42.4465 33.4217 41.9967 33.5188 41.5378 33.5341L38.3183 34.0598C37.4715 34.1779 36.6379 34.3549 35.826 34.589C35.1792 34.7791 34.6455 35.1727 34.3373 35.6868C33.3704 37.2709 32.6365 38.9479 32.1518 40.6808L31.8956 41.4551C31.869 41.8849 31.7128 42.302 31.4414 42.667C31.1701 43.0321 30.7927 43.3332 30.3447 43.542C29.4019 43.9269 28.5383 44.4359 27.7866 45.0497Z" fill="white"/>
</g>
<defs>
<clipPath id="clip0_878_180">
<rect width="375" height="56" fill="white"/>
</clipPath>
</defs>
</svg>
