<svg id="Group_41717" data-name="Group 41717" xmlns="http://www.w3.org/2000/svg" width="315" height="56" viewBox="0 0 315 56">
  <text id="HashingBits" transform="translate(82 44)" fill="#fff" font-size="44" font-family="VisbyCF-DemiBold, Visby CF" font-weight="300"><tspan x="0" y="0">HashingBits</tspan></text>
  <g id="Group_41716" data-name="Group 41716" transform="translate(0)">
    <path id="_4424_Converted_" data-name="4424 [Converted]" d="M.439,30.962V29.008q8.744-5.034,10.793-12.775a7.689,7.689,0,0,1-4.069,1.419,6.435,6.435,0,0,1-5.077-2.446A8.9,8.9,0,0,1,0,9.225,8.8,8.8,0,0,1,2.724,2.657,9.269,9.269,0,0,1,9.453,0a8.219,8.219,0,0,1,6.7,3.378,13.141,13.141,0,0,1,2.678,8.4,17.78,17.78,0,0,1-5.4,12.685,20.705,20.705,0,0,1-13,6.492Z" transform="translate(18.489 33.987) rotate(-169)" fill="#fff"/>
    <path id="_4424_Converted_2" data-name="4424 [Converted]" d="M.439,30.962V29.008q8.744-5.034,10.793-12.775a7.689,7.689,0,0,1-4.069,1.419,6.435,6.435,0,0,1-5.077-2.446A8.9,8.9,0,0,1,0,9.225,8.8,8.8,0,0,1,2.724,2.657,9.269,9.269,0,0,1,9.453,0a8.219,8.219,0,0,1,6.7,3.378,13.141,13.141,0,0,1,2.678,8.4,17.78,17.78,0,0,1-5.4,12.685,20.705,20.705,0,0,1-13,6.492Z" transform="matrix(0.978, 0.208, -0.208, 0.978, 50.499, 21.799)" fill="#fff"/>
    <path id="Path_230" data-name="Path 230" d="M0,30.066a27.9,27.9,0,0,1,1.318-3.354A53.179,53.179,0,0,1,9.1,15.333,65.467,65.467,0,0,1,22.52,3.713,29.009,29.009,0,0,1,29.467.24c.12-.12.359-.12.6-.24L28.629,1.8a56.253,56.253,0,0,0-4.552,5.989c-.12.24-.24.24-.479.24a13.022,13.022,0,0,1-3.114.479,3.792,3.792,0,0,0,1.437.958c.24.12.719.12.839.479,0,.24-.359.6-.479.838a1.727,1.727,0,0,1-1.318,1.078,12.043,12.043,0,0,1-2.995.479c0,.24.12.24.24.359a6.659,6.659,0,0,0,2.036,1.078c.24.12.24.24.12.479a1.59,1.59,0,0,1-1.318.958,21.6,21.6,0,0,1-4.672.958h-.12a6.583,6.583,0,0,0,1.078.839,12.772,12.772,0,0,0,2.276.839c.12,0,.24.12.12.24a9.253,9.253,0,0,1-2.036,2.276,2.722,2.722,0,0,1-2.156.6H10.781a13.019,13.019,0,0,0-2.156.12,2.222,2.222,0,0,0-1.437.839,21.951,21.951,0,0,0-2.755,4.552l-.359.719a2.537,2.537,0,0,1-1.677,1.8A8.267,8.267,0,0,0,0,30.066Z" transform="translate(17.604 15.536) rotate(-11)" fill="#fff" fill-rule="evenodd"/>
  </g>
</svg>
