<svg xmlns="http://www.w3.org/2000/svg" xmlns:xlink="http://www.w3.org/1999/xlink" width="28.399" height="30.097" viewBox="0 0 28.399 30.097">
  <defs>
    <linearGradient id="linear-gradient" x1="-1.489" y1="-0.224" x2="-0.429" y2="-0.224" gradientUnits="objectBoundingBox">
      <stop offset="0" stop-color="#ffa912"/>
      <stop offset="1" stop-color="#e72f70"/>
    </linearGradient>
  </defs>
  <g id="Group_13" data-name="Group 13" transform="translate(0)">
    <g id="Group_11" data-name="Group 11" transform="translate(0 0)">
      <path id="Path_5" data-name="Path 5" d="M328.256,136.812A7.289,7.289,0,0,0,322,140.481a20.432,20.432,0,0,0-2.308,5.73,25.542,25.542,0,0,0-.7,6,23.426,23.426,0,0,0,1.638,8.852c1.172,2.813,2.924,4.9,5.088,5.6,2.5.814,6.356-.577,10.13-2.869,5.875-3.567,11.542-9.317,11.542-12.339a2.081,2.081,0,0,0-.028-.35c0-.005,0-.01,0-.016a10.321,10.321,0,0,0-1.553-3.657C342.418,142.135,334.44,136.556,328.256,136.812Z" transform="translate(-318.989 -136.804)" fill="url(#linear-gradient)"/>
    </g>
    <g id="Group_12" data-name="Group 12" transform="translate(6.658 8.78)">
      <path id="Path_6" data-name="Path 6" d="M352.271,167.43a3.332,3.332,0,0,0-1.011-2.136,3.468,3.468,0,0,0-2.294-.93,45.277,45.277,0,0,0-6.186.069,3.154,3.154,0,0,0-2.7,2.429,34.81,34.81,0,0,0-.065,7.02,3.165,3.165,0,0,0,2.513,2.729,37.248,37.248,0,0,0,6.922.045,3.174,3.174,0,0,0,2.74-2.5,39.355,39.355,0,0,0,.086-6.725m-1.152,6.249a2.117,2.117,0,0,1-1.99,1.889,37.12,37.12,0,0,1-6.449-.091,2.05,2.05,0,0,1-1.557-1.766,42.2,42.2,0,0,1,0-6.31,2.117,2.117,0,0,1,1.982-1.882,44.092,44.092,0,0,1,6.157.026,2.115,2.115,0,0,1,1.883,1.993,44.465,44.465,0,0,1-.025,6.142m-5-6.342a3.207,3.207,0,1,0,3.207,3.21,3.2,3.2,0,0,0-3.207-3.21m-.022,5.28a2.074,2.074,0,1,1,2.1-2.066,2.072,2.072,0,0,1-2.1,2.066m4.1-5.4a.751.751,0,1,1-.743-.755.744.744,0,0,1,.743.755" transform="translate(-339.865 -164.294)" fill="#fff"/>
    </g>
  </g>
</svg>
