<svg id="Final_Vertical_White_2" data-name="Final Vertical White 2" xmlns="http://www.w3.org/2000/svg" width="169" height="37.773" viewBox="0 0 169 37.773">
  <text id="QuillHash" transform="translate(45 28)" fill="#fff" font-size="28" font-family="Visby CF" font-weight="700"><tspan x="0" y="0">QuillHash</tspan></text>
  <g id="QuillHash-2" data-name="QuillHash" transform="translate(0 3.042)">
    <path id="Path_8" data-name="Path 8" d="M22.2,50.313a28.558,28.558,0,0,1,1.353-3.437,54.489,54.489,0,0,1,7.993-11.661A67.176,67.176,0,0,1,45.316,23.308a29.8,29.8,0,0,1,7.133-3.56c.123-.123.369-.123.615-.245l-1.476,1.841a57.558,57.558,0,0,0-4.673,6.138c-.123.245-.246.245-.492.245a13.391,13.391,0,0,1-3.2.49A3.9,3.9,0,0,0,44.7,29.2c.246.123.737.123.861.491,0,.245-.369.614-.492.859a1.772,1.772,0,0,1-1.353,1.1,12.384,12.384,0,0,1-3.074.491c0,.245.123.245.246.368a6.841,6.841,0,0,0,2.091,1.1c.246.123.246.245.123.491a1.631,1.631,0,0,1-1.353.982,22.209,22.209,0,0,1-4.8.982h-.123a6.757,6.757,0,0,0,1.107.859,13.127,13.127,0,0,0,2.336.859c.123,0,.246.123.123.246A9.486,9.486,0,0,1,38.3,40.371a2.8,2.8,0,0,1-2.214.614H33.264a13.391,13.391,0,0,0-2.214.123,2.282,2.282,0,0,0-1.476.859,22.517,22.517,0,0,0-2.829,4.664l-.369.736a2.6,2.6,0,0,1-1.722,1.841,8.484,8.484,0,0,0-2.46,1.1Z" transform="translate(-12.684 -19.503)" fill="#fff" fill-rule="evenodd"/>
    <text id="_" data-name="&lt;" transform="translate(0 26.445)" fill="#fff" font-size="15" font-family="Roboto"><tspan x="0" y="0">&lt;</tspan></text>
    <text id="_2" data-name="&gt;" transform="translate(19.809 30.731)" fill="#fff" font-size="17" font-family="Roboto"><tspan x="0" y="0">&gt;</tspan></text>
  </g>
</svg>
