<svg xmlns="http://www.w3.org/2000/svg" xmlns:xlink="http://www.w3.org/1999/xlink" width="28.4" height="30.097" viewBox="0 0 28.4 30.097">
  <defs>
    <linearGradient id="linear-gradient" x1="-0.07" y1="-1.562" x2="0.99" y2="-1.562" gradientUnits="objectBoundingBox">
      <stop offset="0" stop-color="#00bcf9"/>
      <stop offset="1" stop-color="#0251c7"/>
    </linearGradient>
  </defs>
  <g id="Group_10" data-name="Group 10" transform="translate(0)">
    <g id="Group_6" data-name="Group 6" transform="translate(0 0)">
      <path id="Path_3" data-name="Path 3" d="M203.792,136.812a7.289,7.289,0,0,0-6.257,3.669,20.454,20.454,0,0,0-2.308,5.73,25.575,25.575,0,0,0-.7,6,23.444,23.444,0,0,0,1.638,8.852c1.173,2.813,2.925,4.9,5.089,5.6,2.5.814,6.355-.577,10.13-2.869,5.874-3.567,11.542-9.317,11.542-12.339a2.114,2.114,0,0,0-.028-.35c0-.005,0-.01,0-.016a10.311,10.311,0,0,0-1.553-3.657C217.954,142.135,209.977,136.556,203.792,136.812Z" transform="translate(-194.525 -136.804)" fill="url(#linear-gradient)"/>
    </g>
    <g id="Group_9" data-name="Group 9" transform="translate(6.137 9.355)">
      <g id="Group_8" data-name="Group 8">
        <g id="Group_7" data-name="Group 7">
          <path id="Path_4" data-name="Path 4" d="M227.087,168.989a.115.115,0,0,0-.049.1,7.908,7.908,0,0,1-.058,1.336,8.819,8.819,0,0,1-.773,2.682,8.592,8.592,0,0,1-1.631,2.377,8.044,8.044,0,0,1-4.136,2.307,8.815,8.815,0,0,1-1.68.2,8.5,8.5,0,0,1-4.822-1.293l-.07-.048a6.063,6.063,0,0,0,3.015-.414,5.944,5.944,0,0,0,1.433-.837,3.024,3.024,0,0,1-2.806-2.087,3,3,0,0,0,1.293-.043.114.114,0,0,0,.043-.016,3.034,3.034,0,0,1-1.959-1.384,2.95,2.95,0,0,1-.44-1.6,3,3,0,0,0,1.341.37,3.046,3.046,0,0,1-1.239-1.829,3.011,3.011,0,0,1,.322-2.183,8.616,8.616,0,0,0,6.212,3.148c-.016-.118-.032-.225-.048-.332a2.957,2.957,0,0,1,.44-1.969,2.887,2.887,0,0,1,2.044-1.357,2.932,2.932,0,0,1,2.64.836.151.151,0,0,0,.161.049,6.033,6.033,0,0,0,1.748-.676c.016-.006.026-.011.044-.016,0-.006,0-.006.015-.006a3.06,3.06,0,0,1-1.287,1.642,5.9,5.9,0,0,0,1.679-.451c0,.006.006.006.01.011-.118.15-.225.306-.348.456A5.771,5.771,0,0,1,227.087,168.989Z" transform="translate(-213.868 -166.062)" fill="#fff"/>
        </g>
      </g>
    </g>
  </g>
</svg>
