<svg xmlns="http://www.w3.org/2000/svg" xmlns:xlink="http://www.w3.org/1999/xlink" width="28.4" height="30.097" viewBox="0 0 28.4 30.097">
  <defs>
    <linearGradient id="linear-gradient" y1="0.5" x2="1" y2="0.5" gradientUnits="objectBoundingBox">
      <stop offset="0" stop-color="#e4032e"/>
      <stop offset="1" stop-color="#ef7c56"/>
    </linearGradient>
  </defs>
  <g id="Group_18" data-name="Group 18" transform="translate(0)">
    <g id="Group_14" data-name="Group 14" transform="translate(0 0)">
      <path id="Path_7" data-name="Path 7" d="M460.67,136.812a7.289,7.289,0,0,0-6.257,3.669,20.434,20.434,0,0,0-2.307,5.73,25.526,25.526,0,0,0-.7,6,23.437,23.437,0,0,0,1.638,8.852c1.172,2.813,2.925,4.9,5.089,5.6,2.5.814,6.355-.577,10.13-2.869,5.874-3.567,11.543-9.317,11.543-12.339a2.078,2.078,0,0,0-.029-.35c0-.005,0-.01,0-.016a10.321,10.321,0,0,0-1.553-3.657C474.831,142.135,466.855,136.556,460.67,136.812Z" transform="translate(-451.403 -136.804)" fill="url(#linear-gradient)"/>
    </g>
    <g id="Group_17" data-name="Group 17" transform="translate(5.01 9.47)">
      <g id="Group_16" data-name="Group 16">
        <g id="Group_15" data-name="Group 15">
          <path id="Path_8" data-name="Path 8" d="M482.694,167.83c.578,1.5.6,6.955-.074,8.4a1.843,1.843,0,0,1-.858.864c-1.02.535-11.532.531-12.874.088A1.844,1.844,0,0,1,467.671,176c-.53-1.451-.687-7.522.328-8.718a1.984,1.984,0,0,1,1.326-.7c2.742-.3,11.2-.255,12.172.1A1.887,1.887,0,0,1,482.694,167.83Zm-4.53,3.953c-1.655-.864-3.283-1.716-4.927-2.576v5.13C474.882,173.483,476.515,172.636,478.164,171.783Z" transform="translate(-467.254 -166.383)" fill="#f5f5f5"/>
        </g>
      </g>
    </g>
  </g>
</svg>
